<svg width="44" height="45" viewBox="0 0 44 45" fill="none" xmlns="http://www.w3.org/2000/svg">
<rect y="0.659119" width="44" height="44" rx="8" fill="#E7EDFD"/>
<path fill-rule="evenodd" clip-rule="evenodd" d="M25.9697 13.1288C26.2626 12.8359 26.7374 12.8359 27.0303 13.1288L31.5303 17.6288C31.671 17.7694 31.75 17.9602 31.75 18.1591C31.75 18.358 31.671 18.5488 31.5303 18.6894L27.0303 23.1894C26.7374 23.4823 26.2626 23.4823 25.9697 23.1894C25.6768 22.8966 25.6768 22.4217 25.9697 22.1288L29.1893 18.9091L17.5 18.9091C17.0858 18.9091 16.75 18.5733 16.75 18.1591C16.75 17.7449 17.0858 17.4091 17.5 17.4091L29.1893 17.4091L25.9697 14.1894C25.6768 13.8966 25.6768 13.4217 25.9697 13.1288ZM18.0303 22.1288C18.3232 22.4217 18.3232 22.8966 18.0303 23.1894L14.8107 26.4091H26.5C26.9142 26.4091 27.25 26.7449 27.25 27.1591C27.25 27.5733 26.9142 27.9091 26.5 27.9091H14.8107L18.0303 31.1288C18.3232 31.4217 18.3232 31.8966 18.0303 32.1894C17.7374 32.4823 17.2626 32.4823 16.9697 32.1894L12.4697 27.6894C12.1768 27.3966 12.1768 26.9217 12.4697 26.6288L16.9697 22.1288C17.2626 21.8359 17.7374 21.8359 18.0303 22.1288Z" fill="#3365E8"/>
</svg>
