<svg width="99" height="26" viewBox="0 0 99 26" fill="none" xmlns="http://www.w3.org/2000/svg">
<path d="M5.29901 20.9545V4.5909H6.3473V20.9545H5.29901ZM8.57812 9.66619C8.50994 9.06107 8.22869 8.59232 7.73438 8.25994C7.24006 7.92329 6.6179 7.75497 5.8679 7.75497C5.33097 7.75497 4.86648 7.84019 4.47443 8.01065C4.08239 8.17684 3.7777 8.40695 3.56037 8.70099C3.3473 8.99076 3.24077 9.32102 3.24077 9.69176C3.24077 10.0028 3.31321 10.2713 3.4581 10.4972C3.60724 10.723 3.80114 10.9126 4.03977 11.066C4.28267 11.2152 4.54261 11.3409 4.8196 11.4432C5.09659 11.5412 5.36293 11.6222 5.61861 11.6861L6.89702 12.0185C7.31463 12.1207 7.7429 12.2592 8.18182 12.4339C8.62074 12.6087 9.0277 12.8388 9.4027 13.1243C9.7777 13.4098 10.0803 13.7635 10.3104 14.1854C10.5447 14.6072 10.6619 15.1122 10.6619 15.7003C10.6619 16.4418 10.4702 17.1001 10.0866 17.6754C9.70739 18.2507 9.15554 18.7045 8.43111 19.0369C7.71094 19.3693 6.83949 19.5355 5.81676 19.5355C4.83665 19.5355 3.98864 19.38 3.27273 19.0689C2.55682 18.7578 1.99645 18.3168 1.59162 17.7457C1.18679 17.1704 0.963068 16.4886 0.920455 15.7003H2.90199C2.94034 16.1733 3.09375 16.5675 3.36222 16.8828C3.63494 17.1939 3.98224 17.4261 4.40412 17.5795C4.83026 17.7287 5.29688 17.8033 5.80398 17.8033C6.36222 17.8033 6.85867 17.7159 7.29332 17.5412C7.73224 17.3622 8.07742 17.1151 8.32884 16.7997C8.58026 16.4801 8.70597 16.1072 8.70597 15.6811C8.70597 15.2933 8.59517 14.9758 8.37358 14.7287C8.15625 14.4815 7.86009 14.277 7.48509 14.1151C7.11435 13.9531 6.6946 13.8104 6.22585 13.6868L4.67898 13.2649C3.63068 12.9794 2.79972 12.5597 2.18608 12.0057C1.5767 11.4517 1.27202 10.7187 1.27202 9.80681C1.27202 9.05255 1.47656 8.39417 1.88565 7.83167C2.29474 7.26917 2.84872 6.83238 3.54759 6.5213C4.24645 6.20596 5.0348 6.04829 5.91264 6.04829C6.79901 6.04829 7.58097 6.20383 8.25852 6.51491C8.94034 6.82599 9.47727 7.25426 9.86932 7.79971C10.2614 8.3409 10.4659 8.96306 10.483 9.66619H8.57812ZM17.8098 6.22727V19.3182H15.8283V8.2088H15.7516L12.6195 10.2543V8.36221L15.8858 6.22727H17.8098ZM21.351 19.3182V17.8864L25.7807 13.2969C26.2537 12.7983 26.6436 12.3615 26.9505 11.9865C27.2615 11.6072 27.4938 11.2472 27.6472 10.9062C27.8006 10.5653 27.8773 10.2031 27.8773 9.8196C27.8773 9.38494 27.775 9.00994 27.5705 8.6946C27.3659 8.37499 27.0868 8.12997 26.7331 7.95951C26.3794 7.7848 25.981 7.69744 25.5378 7.69744C25.0691 7.69744 24.66 7.79332 24.3105 7.98508C23.9611 8.17684 23.6926 8.44744 23.5051 8.79687C23.3176 9.1463 23.2239 9.55539 23.2239 10.0241H21.3382C21.3382 9.22727 21.5215 8.53053 21.888 7.93394C22.2544 7.33735 22.7573 6.87499 23.3965 6.54687C24.0357 6.21448 24.7623 6.04829 25.5762 6.04829C26.3986 6.04829 27.123 6.21235 27.7495 6.54048C28.3801 6.86434 28.8723 7.30752 29.226 7.87002C29.5797 8.42826 29.7566 9.05894 29.7566 9.76207C29.7566 10.2479 29.665 10.723 29.4817 11.1875C29.3027 11.652 28.9895 12.1697 28.5421 12.7408C28.0946 13.3075 27.4725 13.9957 26.6756 14.8054L24.074 17.5284V17.6243H29.9675V19.3182H21.351ZM36.7111 19.4972C35.91 19.4972 35.1898 19.3437 34.5506 19.0369C33.9157 18.7258 33.4086 18.2997 33.0293 17.7585C32.65 17.2173 32.4476 16.5994 32.4221 15.9048H34.3397C34.3865 16.4673 34.6358 16.9297 35.0875 17.2919C35.5392 17.6541 36.0804 17.8352 36.7111 17.8352C37.214 17.8352 37.6593 17.7202 38.0471 17.4901C38.4391 17.2557 38.7459 16.9339 38.9675 16.5249C39.1934 16.1158 39.3063 15.6491 39.3063 15.125C39.3063 14.5923 39.1912 14.1172 38.9611 13.6996C38.731 13.282 38.4135 12.9538 38.0087 12.7152C37.6081 12.4766 37.1479 12.3551 36.628 12.3508C36.2317 12.3508 35.8333 12.419 35.4327 12.5554C35.0321 12.6918 34.7083 12.8707 34.4611 13.0923L32.6522 12.8239L33.3873 6.22727H40.5847V7.92116H35.03L34.6145 11.5838H34.6912C34.9469 11.3366 35.2857 11.13 35.7076 10.9638C36.1337 10.7976 36.5897 10.7145 37.0755 10.7145C37.8723 10.7145 38.5819 10.9041 39.204 11.2834C39.8304 11.6626 40.3226 12.1804 40.6806 12.8366C41.0428 13.4886 41.2218 14.2386 41.2175 15.0866C41.2218 15.9347 41.03 16.691 40.6422 17.3558C40.2587 18.0206 39.726 18.5447 39.0442 18.9283C38.3667 19.3075 37.589 19.4972 36.7111 19.4972ZM43.5522 19.3182V17.8864L47.9819 13.2969C48.4549 12.7983 48.8448 12.3615 49.1516 11.9865C49.4627 11.6072 49.695 11.2472 49.8484 10.9062C50.0018 10.5653 50.0785 10.2031 50.0785 9.8196C50.0785 9.38494 49.9762 9.00994 49.7717 8.6946C49.5671 8.37499 49.288 8.12997 48.9343 7.95951C48.5806 7.7848 48.1822 7.69744 47.739 7.69744C47.2702 7.69744 46.8612 7.79332 46.5117 7.98508C46.1623 8.17684 45.8938 8.44744 45.7063 8.79687C45.5188 9.1463 45.4251 9.55539 45.4251 10.0241H43.5394C43.5394 9.22727 43.7227 8.53053 44.0891 7.93394C44.4556 7.33735 44.9585 6.87499 45.5977 6.54687C46.2369 6.21448 46.9634 6.04829 47.7773 6.04829C48.5998 6.04829 49.3242 6.21235 49.9506 6.54048C50.5813 6.86434 51.0735 7.30752 51.4272 7.87002C51.7809 8.42826 51.9577 9.05894 51.9577 9.76207C51.9577 10.2479 51.8661 10.723 51.6829 11.1875C51.5039 11.652 51.1907 12.1697 50.7433 12.7408C50.2958 13.3075 49.6737 13.9957 48.8768 14.8054L46.2752 17.5284V17.6243H52.1687V19.3182H43.5522ZM55.8761 19.4396C55.5266 19.4396 55.2262 19.316 54.9748 19.0689C54.7234 18.8175 54.5977 18.5149 54.5977 18.1612C54.5977 17.8118 54.7234 17.5135 54.9748 17.2663C55.2262 17.0149 55.5266 16.8892 55.8761 16.8892C56.2255 16.8892 56.5259 17.0149 56.7773 17.2663C57.0288 17.5135 57.1545 17.8118 57.1545 18.1612C57.1545 18.3956 57.0948 18.6108 56.9755 18.8068C56.8604 18.9986 56.707 19.152 56.5153 19.267C56.3235 19.3821 56.1104 19.4396 55.8761 19.4396ZM63.799 19.4972C62.9979 19.4972 62.2777 19.3437 61.6385 19.0369C61.0036 18.7258 60.4964 18.2997 60.1172 17.7585C59.7379 17.2173 59.5355 16.5994 59.5099 15.9048H61.4276C61.4744 16.4673 61.7237 16.9297 62.1754 17.2919C62.6271 17.6541 63.1683 17.8352 63.799 17.8352C64.3018 17.8352 64.7472 17.7202 65.1349 17.4901C65.527 17.2557 65.8338 16.9339 66.0554 16.5249C66.2813 16.1158 66.3942 15.6491 66.3942 15.125C66.3942 14.5923 66.2791 14.1172 66.049 13.6996C65.8189 13.282 65.5014 12.9538 65.0966 12.7152C64.696 12.4766 64.2358 12.3551 63.7159 12.3508C63.3196 12.3508 62.9212 12.419 62.5206 12.5554C62.12 12.6918 61.7962 12.8707 61.549 13.0923L59.7401 12.8239L60.4751 6.22727H67.6726V7.92116H62.1179L61.7024 11.5838H61.7791C62.0348 11.3366 62.3736 11.13 62.7955 10.9638C63.2216 10.7976 63.6776 10.7145 64.1634 10.7145C64.9602 10.7145 65.6697 10.9041 66.2919 11.2834C66.9183 11.6626 67.4105 12.1804 67.7685 12.8366C68.1307 13.4886 68.3097 14.2386 68.3054 15.0866C68.3097 15.9347 68.1179 16.691 67.7301 17.3558C67.3466 18.0206 66.8139 18.5447 66.1321 18.9283C65.4545 19.3075 64.6768 19.4972 63.799 19.4972ZM75.6067 6.22727V19.3182H73.6252V8.2088H73.5485L70.4164 10.2543V8.36221L73.6827 6.22727H75.6067Z" fill="#42BD53"/>
<path d="M90.0706 5.60899L95.4501 10.9884C95.6185 11.1569 95.7131 11.3853 95.7131 11.6235C95.7131 11.8617 95.6185 12.0902 95.4501 12.2586C95.2817 12.427 95.0532 12.5217 94.815 12.5217C94.5768 12.5217 94.3484 12.427 94.1799 12.2586L90.3329 8.41004L90.3329 19.3931C90.3329 19.6309 90.2384 19.8589 90.0703 20.0271C89.9021 20.1952 89.6741 20.2897 89.4363 20.2897C89.1985 20.2897 88.9705 20.1952 88.8023 20.0271C88.6342 19.8589 88.5397 19.6309 88.5397 19.3931L88.5397 8.41004L84.6904 12.2571C84.522 12.4255 84.2936 12.5202 84.0554 12.5202C83.8172 12.5202 83.5887 12.4255 83.4203 12.2571C83.2519 12.0887 83.1572 11.8602 83.1572 11.622C83.1572 11.3838 83.2519 11.1554 83.4203 10.987L88.7997 5.6075C88.8831 5.5239 88.9822 5.4576 89.0913 5.41241C89.2005 5.36722 89.3174 5.34403 89.4355 5.34417C89.5536 5.3443 89.6705 5.36777 89.7795 5.41322C89.8885 5.45866 89.9874 5.5252 90.0706 5.60899Z" fill="#42BD53"/>
</svg>
