<svg width="21" height="21" viewBox="0 0 21 21" fill="none" xmlns="http://www.w3.org/2000/svg">
<path d="M17.6403 6.89432L13.2653 2.51932C13.1783 2.43215 13.0749 2.36299 12.9611 2.31581C12.8473 2.26862 12.7253 2.24433 12.6021 2.24432H5.10205C4.68765 2.24432 4.29022 2.40894 3.9972 2.70197C3.70417 2.99499 3.53955 3.39242 3.53955 3.80682V17.5568C3.53955 17.9712 3.70417 18.3687 3.9972 18.6617C4.29022 18.9547 4.68765 19.1193 5.10205 19.1193H16.3521C16.7665 19.1193 17.1639 18.9547 17.4569 18.6617C17.7499 18.3687 17.9146 17.9712 17.9146 17.5568V7.55682C17.9145 7.30838 17.8159 7.0701 17.6403 6.89432ZM13.2271 5.13495L15.0239 6.93182H13.2271V5.13495ZM5.41455 17.2443V4.11932H11.3521V7.86932C11.3521 8.11796 11.4508 8.35642 11.6266 8.53224C11.8025 8.70805 12.0409 8.80682 12.2896 8.80682H16.0396V17.2443H5.41455Z" fill="#A8A8BD"/>
</svg>
