<svg width="102" height="44" viewBox="0 0 102 44" fill="none" xmlns="http://www.w3.org/2000/svg">
<rect x="0.5" y="0.5" width="101" height="43" rx="11.5" stroke="#C5C5D3"/>
<path d="M18.0103 27V16.8182H24.1154V17.9119H19.2433V21.3523H23.658V22.446H19.2433V27H18.0103ZM26.068 27V19.3636H27.2413V27H26.068ZM26.6646 18.0909C26.4359 18.0909 26.2387 18.013 26.073 17.8572C25.9106 17.7015 25.8294 17.5142 25.8294 17.2955C25.8294 17.0767 25.9106 16.8894 26.073 16.7337C26.2387 16.5779 26.4359 16.5 26.6646 16.5C26.8933 16.5 27.0888 16.5779 27.2512 16.7337C27.417 16.8894 27.4998 17.0767 27.4998 17.2955C27.4998 17.5142 27.417 17.7015 27.2512 17.8572C27.0888 18.013 26.8933 18.0909 26.6646 18.0909ZM30.5636 16.8182V27H29.3903V16.8182H30.5636ZM36.0336 19.3636V20.358H32.0762V19.3636H36.0336ZM33.2296 17.5341H34.4029V24.8125C34.4029 25.1439 34.4509 25.3925 34.5471 25.5582C34.6465 25.7206 34.7724 25.83 34.9249 25.8864C35.0807 25.9394 35.2447 25.9659 35.4171 25.9659C35.5463 25.9659 35.6524 25.9593 35.7353 25.946C35.8181 25.9295 35.8844 25.9162 35.9341 25.9062L36.1728 26.9602C36.0932 26.9901 35.9822 27.0199 35.8397 27.0497C35.6971 27.0829 35.5165 27.0994 35.2978 27.0994C34.9663 27.0994 34.6415 27.0282 34.3233 26.8857C34.0085 26.7431 33.7466 26.526 33.5378 26.2344C33.3323 25.9427 33.2296 25.5748 33.2296 25.1307V17.5341ZM40.9181 27.1591C40.1824 27.1591 39.5476 26.9967 39.014 26.6719C38.4837 26.3438 38.0744 25.8864 37.786 25.2997C37.501 24.7098 37.3585 24.0237 37.3585 23.2415C37.3585 22.4593 37.501 21.7699 37.786 21.1733C38.0744 20.5734 38.4754 20.1061 38.9892 19.7713C39.5062 19.4332 40.1094 19.2642 40.7988 19.2642C41.1966 19.2642 41.5893 19.3305 41.9771 19.4631C42.3649 19.5956 42.7179 19.8111 43.036 20.1094C43.3542 20.4044 43.6078 20.7955 43.7967 21.2827C43.9856 21.7699 44.0801 22.3698 44.0801 23.0824V23.5795H38.1937V22.5653H42.8869C42.8869 22.1345 42.8007 21.75 42.6284 21.4119C42.4593 21.0739 42.2174 20.8071 41.9025 20.6115C41.591 20.416 41.2231 20.3182 40.7988 20.3182C40.3315 20.3182 39.9271 20.4342 39.5858 20.6662C39.2477 20.8949 38.9875 21.1932 38.8052 21.5611C38.6229 21.929 38.5318 22.3234 38.5318 22.7443V23.4205C38.5318 23.9972 38.6312 24.486 38.8301 24.8871C39.0323 25.2848 39.3123 25.5881 39.6703 25.7969C40.0282 26.0024 40.4442 26.1051 40.9181 26.1051C41.2264 26.1051 41.5048 26.062 41.7534 25.9759C42.0053 25.8864 42.2224 25.7538 42.4047 25.5781C42.5869 25.3991 42.7278 25.1771 42.8272 24.9119L43.9608 25.2301C43.8414 25.6146 43.6409 25.9527 43.3592 26.2443C43.0775 26.5327 42.7295 26.758 42.3152 26.9205C41.9009 27.0795 41.4352 27.1591 40.9181 27.1591ZM45.8649 27V19.3636H46.9984V20.517H47.0779C47.2172 20.1392 47.469 19.8326 47.8336 19.5973C48.1982 19.362 48.6092 19.2443 49.0666 19.2443C49.1528 19.2443 49.2605 19.246 49.3897 19.2493C49.519 19.2526 49.6168 19.2576 49.6831 19.2642V20.4574C49.6433 20.4474 49.5521 20.4325 49.4096 20.4126C49.2704 20.3894 49.1229 20.3778 48.9672 20.3778C48.5959 20.3778 48.2645 20.4557 47.9728 20.6115C47.6845 20.764 47.4558 20.9761 47.2868 21.2479C47.121 21.5163 47.0382 21.8229 47.0382 22.1676V27H45.8649Z" fill="#A8A8BD"/>
<path d="M84.3038 15.743C84.1813 15.4661 83.9811 15.2308 83.7274 15.0656C83.4737 14.9005 83.1776 14.8125 82.8748 14.8125H69.1248C68.8222 14.8125 68.5261 14.9005 68.2724 15.0656C68.0188 15.2308 67.8186 15.466 67.6961 15.7428C67.5737 16.0196 67.5342 16.326 67.5826 16.6247C67.631 16.9235 67.7651 17.2018 67.9686 17.4258L67.978 17.4367L73.1873 22.9961V28.875C73.1873 29.1579 73.2641 29.4355 73.4094 29.6781C73.5548 29.9208 73.7633 30.1195 74.0127 30.2529C74.2621 30.3864 74.5431 30.4496 74.8257 30.4359C75.1082 30.4222 75.3817 30.332 75.617 30.175L78.117 28.5086C78.3311 28.3658 78.5065 28.1723 78.6278 27.9454C78.7491 27.7185 78.8125 27.4651 78.8123 27.2078V22.9961L84.0209 17.4367L84.0303 17.4258C84.234 17.2019 84.3682 16.9237 84.4168 16.625C84.4653 16.3262 84.4261 16.0198 84.3038 15.743ZM77.36 21.8039C77.088 22.0932 76.9368 22.4755 76.9373 22.8727V27.0406L75.0623 28.2906V22.8727C75.0629 22.4755 74.9117 22.0932 74.6397 21.8039L69.8459 16.6875H82.1538L77.36 21.8039Z" fill="#A8A8BD"/>
</svg>
