<svg xmlns="http://www.w3.org/2000/svg" width="114" height="39" viewBox="0 0 114 39" fill="none">
  <path d="M36.8453 18.0024V5.2514H40.0327V6.6914H40.4953C40.6843 6.17657 40.9963 5.80005 41.4343 5.5603C41.8708 5.32056 42.381 5.20068 42.9634 5.20068H44.5064V8.08069H42.9127C42.0905 8.08069 41.4128 8.29892 40.8811 8.73692C40.3493 9.17338 40.0834 9.84651 40.0834 10.7548V18.004H36.8438L36.8453 18.0024Z" fill="#959595"/>
  <path d="M52.6316 18.3622C51.3637 18.3622 50.2234 18.1055 49.2122 17.5907C48.2009 17.0774 47.4033 16.3305 46.8209 15.3546C46.2384 14.3772 45.9464 13.2046 45.9464 11.8322V11.4203C45.9464 10.0495 46.2384 8.87537 46.8209 7.89795C47.4033 6.92053 48.2009 6.17517 49.2122 5.66187C50.2234 5.14703 51.3622 4.89038 52.6316 4.89038C53.901 4.89038 55.0398 5.14703 56.051 5.66187C57.0623 6.1767 57.8583 6.92206 58.4423 7.89795C59.0248 8.87537 59.3168 10.0495 59.3168 11.4203V11.8322C59.3168 13.2031 59.0248 14.3772 58.4423 15.3546C57.8599 16.332 57.0623 17.0774 56.051 17.5907C55.0398 18.1055 53.8995 18.3622 52.6316 18.3622ZM52.6316 15.4822C53.6259 15.4822 54.4481 15.161 55.0997 14.5186C55.7514 13.8762 56.0772 12.9541 56.0772 11.7554V11.4987C56.0772 10.3 55.756 9.37791 55.1136 8.73552C54.4712 8.09312 53.6444 7.77193 52.6331 7.77193C51.6219 7.77193 50.8166 8.09312 50.165 8.73552C49.5134 9.37791 49.1876 10.3 49.1876 11.4987V11.7554C49.1876 12.9556 49.5134 13.8762 50.165 14.5186C50.8166 15.161 51.6388 15.4822 52.6331 15.4822H52.6316Z" fill="#959595"/>
  <path d="M61.6835 18.0025V0.0078125H64.9231V18.004H61.6835V18.0025Z" fill="#959595"/>
  <path d="M68.0598 18.0025V0.0078125H71.2994V18.004H68.0598V18.0025Z" fill="#959595"/>
  <path d="M44.5064 38.931C43.3584 38.931 42.4747 38.7343 41.8584 38.3393C41.2422 37.9459 40.7873 37.5079 40.4968 37.0284H40.0342V38.5714H36.8469V20.5752H40.0865V27.285H40.5491C40.7381 26.9761 40.9901 26.6856 41.3083 26.4105C41.6249 26.137 42.0444 25.9095 42.5685 25.7297C43.091 25.5499 43.738 25.4592 44.5095 25.4592C45.5376 25.4592 46.4889 25.7128 47.3634 26.2184C48.2378 26.724 48.9401 27.4648 49.4719 28.4422C50.0036 29.4196 50.2695 30.6014 50.2695 31.9892V32.4011C50.2695 33.7888 50.0036 34.9722 49.4719 35.9481C48.9401 36.9255 48.2378 37.6662 47.3634 38.1718C46.4889 38.6775 45.5376 38.931 44.5095 38.931H44.5064ZM43.529 36.1033C44.5233 36.1033 45.3547 35.7821 46.0232 35.1397C46.6918 34.4973 47.0253 33.5583 47.0253 32.3242V32.0676C47.0253 30.8335 46.6948 29.8945 46.0355 29.2521C45.3762 28.6097 44.5402 28.2885 43.529 28.2885C42.5177 28.2885 41.7032 28.6097 41.0347 29.2521C40.3662 29.8945 40.0327 30.8335 40.0327 32.0676V32.3242C40.0327 33.5583 40.3662 34.4973 41.0347 35.1397C41.7032 35.7821 42.5347 36.1033 43.529 36.1033Z" fill="#959595"/>
  <path d="M57.03 38.7773C56.0356 38.7773 55.1658 38.5498 54.4204 38.0965C53.6751 37.6431 53.0972 37.013 52.6854 36.2062C52.2735 35.4009 52.0691 34.4757 52.0691 33.4291V25.8203H55.3087V33.1725C55.3087 34.133 55.5439 34.8522 56.0157 35.3317C56.4875 35.8112 57.1591 36.051 58.0335 36.051C59.0278 36.051 59.7993 35.7205 60.348 35.0612C60.8966 34.4019 61.1702 33.4798 61.1702 32.298V25.8203H64.4098V38.5713H61.2224V36.9008H60.7598C60.5539 37.3296 60.1682 37.7491 59.6026 38.161C59.0371 38.5729 58.1795 38.7788 57.0315 38.7788L57.03 38.7773Z" fill="#959595"/>
  <path d="M73.3834 38.9309C72.1493 38.9309 71.0305 38.6742 70.0285 38.1594C69.0265 37.6461 68.2335 36.8992 67.651 35.9233C67.0685 34.9459 66.7766 33.7641 66.7766 32.3763V32.0167C66.7766 30.629 67.0685 29.4456 67.651 28.4697C68.2335 27.4923 69.0265 26.7469 70.0285 26.2336C71.0305 25.7203 72.1493 25.4622 73.3834 25.4622C74.6174 25.4622 75.6456 25.6773 76.52 26.1046C77.3945 26.5333 78.1014 27.1204 78.6408 27.8658C79.1803 28.6111 79.5368 29.4548 79.7074 30.3984L76.5707 31.067C76.5016 30.5521 76.3479 30.0895 76.1082 29.6792C75.8684 29.2673 75.5303 28.9431 75.0923 28.7018C74.6558 28.462 74.1118 28.3422 73.4602 28.3422C72.8086 28.3422 72.2215 28.4836 71.699 28.7663C71.1765 29.0491 70.7646 29.4687 70.4649 30.0265C70.1652 30.5844 70.0146 31.2652 70.0146 32.0705V32.3272C70.0146 33.1325 70.1637 33.8148 70.4649 34.3711C70.7646 34.929 71.1765 35.3486 71.699 35.6313C72.2215 35.9141 72.8086 36.0555 73.4602 36.0555C74.4376 36.0555 75.1784 35.8035 75.684 35.2978C76.1896 34.7922 76.5108 34.1283 76.6476 33.3046L79.7842 34.0499C79.5614 34.9582 79.1803 35.785 78.6408 36.5304C78.1014 37.2757 77.3945 37.8628 76.52 38.2916C75.6456 38.7203 74.6005 38.934 73.3834 38.934V38.9309Z" fill="#959595"/>
  <path d="M81.842 38.5714V20.5752H85.0816V30.5246H85.5442L89.7597 25.8204H93.9752L88.0876 31.9907L94.1812 38.5714H90.0164L85.5427 33.5076H85.0801V38.5714H81.8405H81.842Z" fill="#959595"/>
  <path d="M101.177 38.931C99.514 38.931 98.1524 38.5714 97.0889 37.8506C96.0254 37.1314 95.383 36.1033 95.1602 34.7662L98.1416 33.9948C98.2615 34.5957 98.4628 35.0659 98.7456 35.4086C99.0283 35.7513 99.3803 35.9957 99.7998 36.1417C100.219 36.2877 100.677 36.3599 101.175 36.3599C101.93 36.3599 102.486 36.2278 102.846 35.9619C103.205 35.696 103.385 35.3671 103.385 34.9722C103.385 34.5772 103.213 34.2745 102.87 34.0593C102.528 33.8457 101.979 33.6689 101.224 33.5322L100.505 33.4031C99.6139 33.2325 98.7994 32.9958 98.0632 32.6961C97.3255 32.3965 96.7354 31.9815 96.2897 31.4498C95.844 30.918 95.6212 30.2326 95.6212 29.3935C95.6212 28.1256 96.0838 27.1528 97.009 26.4751C97.9341 25.7989 99.1513 25.4592 100.659 25.4592C102.082 25.4592 103.264 25.7758 104.206 26.4105C105.148 27.0452 105.766 27.8767 106.056 28.9048L103.049 29.83C102.912 29.1783 102.632 28.7158 102.213 28.4422C101.793 28.1687 101.274 28.0303 100.657 28.0303C100.041 28.0303 99.5693 28.1379 99.2435 28.3515C98.9177 28.5667 98.7548 28.8618 98.7548 29.2383C98.7548 29.6501 98.9254 29.9544 99.2696 30.1512C99.6123 30.3479 100.075 30.4985 100.657 30.6014L101.377 30.7305C102.336 30.9027 103.205 31.1286 103.986 31.4113C104.765 31.6941 105.383 32.0968 105.836 32.6193C106.29 33.1418 106.517 33.8488 106.517 34.7401C106.517 36.0772 106.033 37.1099 105.065 37.8384C104.097 38.5668 102.798 38.931 101.171 38.931H101.177Z" fill="#959595"/>
  <path d="M113.244 34.6372H109.76V38.1212H113.244V34.6372Z" fill="#959595"/>
  <path d="M28.0209 31.9813L27.9979 38.9631L17.8471 39L13.4242 32.5899C13.0984 32.1181 12.3607 32.3486 12.3607 32.9219V38.9647H0V0H27.9979V18.7585H20.0095C19.5392 18.7585 19.2626 19.2856 19.5284 19.6729L28.0209 31.9829V31.9813Z" fill="#959595"/>
</svg>