<svg width="88" height="30" viewBox="0 0 88 34" fill="none" xmlns="http://www.w3.org/2000/svg">
<rect width="88" height="34" rx="17" fill="#D9F2DD"/>
<path d="M28.2784 23V11.3636H32.4261C33.3314 11.3636 34.0814 11.5284 34.6761 11.858C35.2708 12.1875 35.7159 12.6383 36.0114 13.2102C36.3068 13.7784 36.4545 14.4186 36.4545 15.1307C36.4545 15.8466 36.3049 16.4905 36.0057 17.0625C35.7102 17.6307 35.2633 18.0814 34.6648 18.4148C34.0701 18.7443 33.322 18.9091 32.4205 18.9091H29.5682V17.4205H32.2614C32.8333 17.4205 33.2973 17.322 33.6534 17.125C34.0095 16.9242 34.2708 16.6515 34.4375 16.3068C34.6042 15.9621 34.6875 15.5701 34.6875 15.1307C34.6875 14.6913 34.6042 14.3011 34.4375 13.9602C34.2708 13.6193 34.0076 13.3523 33.6477 13.1591C33.2917 12.9659 32.822 12.8693 32.2386 12.8693H30.0341V23H28.2784ZM40.8381 23.1932C40.285 23.1932 39.785 23.0909 39.3381 22.8864C38.8911 22.678 38.5369 22.3769 38.2756 21.983C38.018 21.589 37.8892 21.1061 37.8892 20.5341C37.8892 20.0417 37.9839 19.6364 38.1733 19.3182C38.3627 19 38.6184 18.7481 38.9403 18.5625C39.2623 18.3769 39.6222 18.2367 40.0199 18.142C40.4176 18.0473 40.8229 17.9754 41.2358 17.9261C41.7585 17.8655 42.1828 17.8163 42.5085 17.7784C42.8343 17.7367 43.071 17.6705 43.2188 17.5795C43.3665 17.4886 43.4403 17.3409 43.4403 17.1364V17.0966C43.4403 16.6004 43.3002 16.2159 43.0199 15.9432C42.7434 15.6705 42.3305 15.5341 41.7812 15.5341C41.2093 15.5341 40.7585 15.661 40.429 15.9148C40.1032 16.1648 39.8778 16.4432 39.7528 16.75L38.1562 16.3864C38.3456 15.8561 38.6222 15.428 38.9858 15.1023C39.3532 14.7727 39.7756 14.5341 40.2528 14.3864C40.7301 14.2348 41.232 14.1591 41.7585 14.1591C42.107 14.1591 42.4763 14.2008 42.8665 14.2841C43.2604 14.3636 43.6278 14.5114 43.9688 14.7273C44.3134 14.9432 44.5956 15.2519 44.8153 15.6534C45.035 16.0511 45.1449 16.5682 45.1449 17.2045V23H43.4858V21.8068H43.4176C43.3078 22.0265 43.143 22.2424 42.9233 22.4545C42.7036 22.6667 42.4214 22.8428 42.0767 22.983C41.732 23.1231 41.3191 23.1932 40.8381 23.1932ZM41.2074 21.8295C41.6771 21.8295 42.0786 21.7367 42.4119 21.5511C42.7491 21.3655 43.0047 21.1231 43.179 20.8239C43.357 20.5208 43.446 20.197 43.446 19.8523V18.7273C43.3854 18.7879 43.268 18.8447 43.0938 18.8977C42.9233 18.947 42.7282 18.9905 42.5085 19.0284C42.2888 19.0625 42.0748 19.0947 41.8665 19.125C41.6581 19.1515 41.4839 19.1742 41.3438 19.1932C41.0142 19.2348 40.7131 19.3049 40.4403 19.4034C40.1714 19.5019 39.9555 19.6439 39.7926 19.8295C39.6335 20.0114 39.554 20.2538 39.554 20.5568C39.554 20.9773 39.7093 21.2955 40.0199 21.5114C40.3305 21.7235 40.7263 21.8295 41.2074 21.8295ZM47.4077 23V14.2727H49.1065V23H47.4077ZM48.2656 12.9261C47.9702 12.9261 47.7164 12.8277 47.5043 12.6307C47.2959 12.4299 47.1918 12.1913 47.1918 11.9148C47.1918 11.6345 47.2959 11.3958 47.5043 11.1989C47.7164 10.9981 47.9702 10.8977 48.2656 10.8977C48.5611 10.8977 48.813 10.9981 49.0213 11.1989C49.2334 11.3958 49.3395 11.6345 49.3395 11.9148C49.3395 12.1913 49.2334 12.4299 49.0213 12.6307C48.813 12.8277 48.5611 12.9261 48.2656 12.9261ZM54.6591 23.1705C53.9545 23.1705 53.3258 22.9905 52.7727 22.6307C52.2235 22.267 51.7917 21.75 51.4773 21.0795C51.1667 20.4053 51.0114 19.5966 51.0114 18.6534C51.0114 17.7102 51.1686 16.9034 51.483 16.233C51.8011 15.5625 52.2367 15.0492 52.7898 14.6932C53.3428 14.3371 53.9697 14.1591 54.6705 14.1591C55.2121 14.1591 55.6477 14.25 55.9773 14.4318C56.3106 14.6098 56.5682 14.8182 56.75 15.0568C56.9356 15.2955 57.0795 15.5057 57.1818 15.6875H57.2841V11.3636H58.983V23H57.3239V21.642H57.1818C57.0795 21.8277 56.9318 22.0398 56.7386 22.2784C56.5492 22.517 56.2879 22.7254 55.9545 22.9034C55.6212 23.0814 55.1894 23.1705 54.6591 23.1705ZM55.0341 21.7216C55.5227 21.7216 55.9356 21.5928 56.2727 21.3352C56.6136 21.0739 56.8712 20.7121 57.0455 20.25C57.2235 19.7879 57.3125 19.25 57.3125 18.6364C57.3125 18.0303 57.2254 17.5 57.0511 17.0455C56.8769 16.5909 56.6212 16.2367 56.2841 15.983C55.947 15.7292 55.5303 15.6023 55.0341 15.6023C54.5227 15.6023 54.0966 15.7348 53.7557 16C53.4148 16.2652 53.1572 16.6269 52.983 17.0852C52.8125 17.5436 52.7273 18.0606 52.7273 18.6364C52.7273 19.2197 52.8144 19.7443 52.9886 20.2102C53.1629 20.6761 53.4205 21.0455 53.7614 21.3182C54.1061 21.5871 54.5303 21.7216 55.0341 21.7216Z" fill="#359742"/>
</svg>
