<svg width="114" height="39" viewBox="0 0 114 39" fill="none" xmlns="http://www.w3.org/2000/svg">
<path d="M36.8453 18.0023V5.25128H40.0327V6.69128H40.4952C40.6843 6.17645 40.9962 5.79992 41.4342 5.56018C41.8707 5.32043 42.3809 5.20056 42.9634 5.20056H44.5064V8.08057H42.9127C42.0905 8.08057 41.4127 8.2988 40.881 8.73679C40.3492 9.17325 40.0834 9.84638 40.0834 10.7546V18.0038H36.8438L36.8453 18.0023Z" fill="#BABABA"/>
<path d="M52.6315 18.3619C51.3636 18.3619 50.2233 18.1053 49.212 17.5905C48.2008 17.0772 47.4032 16.3303 46.8207 15.3544C46.2383 14.377 45.9463 13.2044 45.9463 11.832V11.4201C45.9463 10.0493 46.2383 8.87512 46.8207 7.8977C47.4032 6.92028 48.2008 6.17492 49.212 5.66162C50.2233 5.14679 51.3621 4.89014 52.6315 4.89014C53.9009 4.89014 55.0397 5.14679 56.0509 5.66162C57.0621 6.17646 57.8582 6.92182 58.4422 7.8977C59.0247 8.87512 59.3167 10.0493 59.3167 11.4201V11.832C59.3167 13.2028 59.0247 14.377 58.4422 15.3544C57.8598 16.3318 57.0621 17.0772 56.0509 17.5905C55.0397 18.1053 53.8994 18.3619 52.6315 18.3619ZM52.6315 15.4819C53.6258 15.4819 54.448 15.1607 55.0996 14.5183C55.7512 13.876 56.077 12.9539 56.077 11.7551V11.4985C56.077 10.2998 55.7558 9.37767 55.1134 8.73527C54.4711 8.09288 53.6442 7.77168 52.633 7.77168C51.6218 7.77168 50.8165 8.09288 50.1649 8.73527C49.5133 9.37767 49.1875 10.2998 49.1875 11.4985V11.7551C49.1875 12.9554 49.5133 13.876 50.1649 14.5183C50.8165 15.1607 51.6387 15.4819 52.633 15.4819H52.6315Z" fill="#BABABA"/>
<path d="M61.6836 18.0024V0.00769043H64.9232V18.0039H61.6836V18.0024Z"  fill="#BABABA"/>
<path d="M68.0596 18.0024V0.00769043H71.2992V18.0039H68.0596V18.0024Z" fill="#BABABA"/>
<path d="M44.5062 38.9309C43.3582 38.9309 42.4745 38.7342 41.8583 38.3392C41.242 37.9458 40.7871 37.5078 40.4966 37.0283H40.0341V38.5713H36.8467V20.5751H40.0863V27.2848H40.5489C40.7379 26.9759 40.99 26.6855 41.3081 26.4104C41.6247 26.1368 42.0442 25.9094 42.5683 25.7296C43.0908 25.5498 43.7378 25.4591 44.5093 25.4591C45.5374 25.4591 46.4887 25.7127 47.3632 26.2183C48.2376 26.7239 48.94 27.4647 49.4717 28.4421C50.0034 29.4195 50.2693 30.6013 50.2693 31.9891V32.4009C50.2693 33.7887 50.0034 34.972 49.4717 35.9479C48.94 36.9254 48.2376 37.6661 47.3632 38.1717C46.4887 38.6773 45.5374 38.9309 44.5093 38.9309H44.5062ZM43.5288 36.1031C44.5231 36.1031 45.3545 35.782 46.0231 35.1396C46.6916 34.4972 47.0251 33.5582 47.0251 32.3241V32.0674C47.0251 30.8334 46.6947 29.8944 46.0354 29.252C45.3761 28.6096 44.54 28.2884 43.5288 28.2884C42.5176 28.2884 41.703 28.6096 41.0345 29.252C40.366 29.8944 40.0325 30.8334 40.0325 32.0674V32.3241C40.0325 33.5582 40.366 34.4972 41.0345 35.1396C41.703 35.782 42.5345 36.1031 43.5288 36.1031Z" fill="#BABABA"/>
<path d="M57.0297 38.7772C56.0354 38.7772 55.1655 38.5497 54.4202 38.0963C53.6748 37.643 53.097 37.0129 52.6851 36.2061C52.2732 35.4008 52.0688 34.4756 52.0688 33.429V25.8202H55.3085V33.1724C55.3085 34.1329 55.5436 34.8521 56.0154 35.3316C56.4872 35.8111 57.1588 36.0508 58.0333 36.0508C59.0276 36.0508 59.7991 35.7204 60.3477 35.0611C60.8964 34.4018 61.1699 33.4797 61.1699 32.2979V25.8202H64.4095V38.5712H61.2222V36.9007H60.7596C60.5537 37.3295 60.1679 37.749 59.6024 38.1609C59.0368 38.5728 58.1793 38.7787 57.0313 38.7787L57.0297 38.7772Z" fill="#BABABA"/>
<path d="M73.3832 38.9309C72.1491 38.9309 71.0303 38.6742 70.0283 38.1594C69.0263 37.6461 68.2333 36.8992 67.6508 35.9233C67.0684 34.9459 66.7764 33.7641 66.7764 32.3763V32.0167C66.7764 30.629 67.0684 29.4456 67.6508 28.4697C68.2333 27.4923 69.0263 26.7469 70.0283 26.2336C71.0303 25.7203 72.1491 25.4622 73.3832 25.4622C74.6172 25.4622 75.6454 25.6773 76.5198 26.1046C77.3943 26.5333 78.1012 27.1204 78.6407 27.8658C79.1801 28.6111 79.5366 29.4548 79.7072 30.3984L76.5705 31.067C76.5014 30.5521 76.3477 30.0895 76.108 29.6792C75.8682 29.2673 75.5301 28.9431 75.0921 28.7018C74.6557 28.462 74.1116 28.3422 73.46 28.3422C72.8084 28.3422 72.2213 28.4836 71.6988 28.7663C71.1763 29.0491 70.7644 29.4687 70.4647 30.0265C70.1651 30.5844 70.0145 31.2652 70.0145 32.0705V32.3272C70.0145 33.1325 70.1635 33.8148 70.4647 34.3711C70.7644 34.929 71.1763 35.3486 71.6988 35.6313C72.2213 35.9141 72.8084 36.0555 73.46 36.0555C74.4374 36.0555 75.1782 35.8035 75.6838 35.2978C76.1894 34.7922 76.5106 34.1283 76.6474 33.3046L79.7841 34.0499C79.5612 34.9582 79.1801 35.785 78.6407 36.5304C78.1012 37.2757 77.3943 37.8628 76.5198 38.2916C75.6454 38.7203 74.6003 38.934 73.3832 38.934V38.9309Z" fill="#BABABA"/>
<path d="M81.8419 38.5713V20.5751H85.0815V30.5245H85.5441L89.7596 25.8203H93.9751L88.0875 31.9906L94.181 38.5713H90.0162L85.5425 33.5075H85.08V38.5713H81.8403H81.8419Z" fill="#BABABA"/>
<path d="M101.177 38.9308C99.514 38.9308 98.1524 38.5712 97.0889 37.8504C96.0254 37.1312 95.383 36.103 95.1602 34.766L98.1416 33.9945C98.2615 34.5954 98.4628 35.0657 98.7456 35.4084C99.0283 35.7511 99.3803 35.9955 99.7998 36.1415C100.219 36.2875 100.677 36.3597 101.175 36.3597C101.93 36.3597 102.486 36.2275 102.846 35.9616C103.205 35.6958 103.385 35.3669 103.385 34.9719C103.385 34.577 103.213 34.2742 102.87 34.0591C102.528 33.8454 101.979 33.6687 101.224 33.5319L100.505 33.4028C99.6139 33.2322 98.7994 32.9956 98.0632 32.6959C97.3255 32.3962 96.7354 31.9813 96.2897 31.4495C95.844 30.9178 95.6212 30.2324 95.6212 29.3933C95.6212 28.1254 96.0838 27.1526 97.009 26.4748C97.9341 25.7986 99.1513 25.459 100.659 25.459C102.082 25.459 103.264 25.7756 104.206 26.4103C105.148 27.045 105.766 27.8764 106.056 28.9045L103.049 29.8297C102.912 29.1781 102.632 28.7155 102.213 28.442C101.793 28.1684 101.274 28.0301 100.657 28.0301C100.041 28.0301 99.5693 28.1377 99.2435 28.3513C98.9177 28.5664 98.7548 28.8615 98.7548 29.238C98.7548 29.6499 98.9254 29.9542 99.2696 30.1509C99.6123 30.3476 100.075 30.4982 100.657 30.6012L101.377 30.7303C102.336 30.9024 103.205 31.1283 103.986 31.4111C104.765 31.6939 105.383 32.0965 105.836 32.6191C106.29 33.1416 106.517 33.8485 106.517 34.7399C106.517 36.0769 106.033 37.1097 105.065 37.8381C104.097 38.5666 102.798 38.9308 101.171 38.9308H101.177Z" fill="#BABABA"/>
<path d="M113.244 34.637H109.76V38.1209H113.244V34.637Z" fill="#BABABA"/>
<path d="M28.0209 31.9813L27.9979 38.9631L17.8471 39L13.4242 32.5899C13.0984 32.1181 12.3607 32.3486 12.3607 32.9219V38.9647H0V0H27.9979V18.7585H20.0095C19.5392 18.7585 19.2626 19.2856 19.5284 19.6729L28.0209 31.9829V31.9813Z" fill="#BABABA"/>
</svg>
