<svg xmlns="http://www.w3.org/2000/svg" width="114" height="39" viewBox="0 0 114 39" fill="none">
  <g clip-path="url(#clip0_22_10)">
    <path d="M36.8454 18.0024V5.25134H40.0328V6.69134H40.4953C40.6844 6.17651 40.9963 5.79998 41.4343 5.56024C41.8708 5.32049 42.381 5.20062 42.9635 5.20062H44.5064V8.08063H42.9128C42.0906 8.08063 41.4128 8.29886 40.8811 8.73686C40.3493 9.17331 40.0835 9.84644 40.0835 10.7547V18.0039H36.8438L36.8454 18.0024Z" fill="#22262B"/>
    <path d="M52.6316 18.362C51.3637 18.362 50.2234 18.1054 49.2122 17.5905C48.201 17.0772 47.4034 16.3303 46.8209 15.3544C46.2384 14.377 45.9464 13.2044 45.9464 11.832V11.4202C45.9464 10.0493 46.2384 8.87518 46.8209 7.89776C47.4034 6.92034 48.201 6.17498 49.2122 5.66168C50.2234 5.14685 51.3622 4.8902 52.6316 4.8902C53.901 4.8902 55.0398 5.14685 56.0511 5.66168C57.0623 6.17652 57.8584 6.92188 58.4424 7.89776C59.0248 8.87518 59.3168 10.0493 59.3168 11.4202V11.832C59.3168 13.2029 59.0248 14.377 58.4424 15.3544C57.8599 16.3319 57.0623 17.0772 56.0511 17.5905C55.0398 18.1054 53.8995 18.362 52.6316 18.362ZM52.6316 15.482C53.626 15.482 54.4482 15.1608 55.0998 14.5184C55.7514 13.876 56.0772 12.9539 56.0772 11.7552V11.4985C56.0772 10.2998 55.756 9.37773 55.1136 8.73533C54.4712 8.09294 53.6444 7.77174 52.6332 7.77174C51.6219 7.77174 50.8166 8.09294 50.165 8.73533C49.5134 9.37773 49.1876 10.2998 49.1876 11.4985V11.7552C49.1876 12.9555 49.5134 13.876 50.165 14.5184C50.8166 15.1608 51.6388 15.482 52.6332 15.482H52.6316Z" fill="#22262B"/>
    <path d="M61.6835 18.0024V0.00769043H64.9232V18.0039H61.6835V18.0024Z" fill="#22262B"/>
    <path d="M68.0598 18.0024V0.00769043H71.2994V18.0039H68.0598V18.0024Z" fill="#22262B"/>
    <path d="M44.5065 38.9308C43.3585 38.9308 42.4748 38.7341 41.8585 38.3392C41.2422 37.9457 40.7873 37.5077 40.4969 37.0283H40.0343V38.5712H36.8469V20.575H40.0866V27.2848H40.5491C40.7382 26.9759 40.9902 26.6854 41.3083 26.4103C41.6249 26.1368 42.0445 25.9093 42.5685 25.7295C43.091 25.5497 43.738 25.459 44.5095 25.459C45.5377 25.459 46.489 25.7126 47.3634 26.2182C48.2379 26.7238 48.9402 27.4646 49.4719 28.442C50.0037 29.4194 50.2696 30.6013 50.2696 31.989V32.4009C50.2696 33.7886 50.0037 34.972 49.4719 35.9479C48.9402 36.9253 48.2379 37.666 47.3634 38.1717C46.489 38.6773 45.5377 38.9308 44.5095 38.9308H44.5065ZM43.529 36.1031C44.5234 36.1031 45.3548 35.7819 46.0233 35.1395C46.6918 34.4971 47.0253 33.5581 47.0253 32.324V32.0674C47.0253 30.8333 46.6949 29.8943 46.0356 29.2519C45.3763 28.6095 44.5403 28.2883 43.529 28.2883C42.5178 28.2883 41.7033 28.6095 41.0348 29.2519C40.3663 29.8943 40.0328 30.8333 40.0328 32.0674V32.324C40.0328 33.5581 40.3663 34.4971 41.0348 35.1395C41.7033 35.7819 42.5347 36.1031 43.529 36.1031Z" fill="#22262B"/>
    <path d="M57.03 38.7772C56.0357 38.7772 55.1659 38.5497 54.4205 38.0963C53.6751 37.643 53.0973 37.0129 52.6854 36.2061C52.2736 35.4008 52.0692 34.4756 52.0692 33.429V25.8202H55.3088V33.1724C55.3088 34.1329 55.5439 34.8521 56.0157 35.3316C56.4875 35.8111 57.1591 36.0508 58.0336 36.0508C59.0279 36.0508 59.7994 35.7204 60.348 35.0611C60.8967 34.4018 61.1702 33.4797 61.1702 32.2979V25.8202H64.4099V38.5712H61.2225V36.9007H60.7599C60.554 37.3295 60.1682 37.749 59.6027 38.1609C59.0371 38.5728 58.1796 38.7787 57.0316 38.7787L57.03 38.7772Z" fill="#22262B"/>
    <path d="M73.3834 38.9308C72.1493 38.9308 71.0305 38.6742 70.0285 38.1593C69.0265 37.646 68.2335 36.8991 67.651 35.9233C67.0686 34.9458 66.7766 33.764 66.7766 32.3763V32.0167C66.7766 30.6289 67.0686 29.4455 67.651 28.4697C68.2335 27.4922 69.0265 26.7469 70.0285 26.2336C71.0305 25.7203 72.1493 25.4621 73.3834 25.4621C74.6175 25.4621 75.6456 25.6773 76.52 26.1045C77.3945 26.5333 78.1014 27.1203 78.6409 27.8657C79.1803 28.6111 79.5368 29.4548 79.7074 30.3984L76.5708 31.0669C76.5016 30.5521 76.3479 30.0895 76.1082 29.6791C75.8684 29.2673 75.5303 28.943 75.0923 28.7017C74.6559 28.462 74.1118 28.3421 73.4602 28.3421C72.8086 28.3421 72.2216 28.4835 71.699 28.7663C71.1765 29.049 70.7646 29.4686 70.465 30.0265C70.1653 30.5843 70.0147 31.2651 70.0147 32.0704V32.3271C70.0147 33.1324 70.1637 33.8147 70.465 34.3711C70.7646 34.9289 71.1765 35.3485 71.699 35.6313C72.2216 35.914 72.8086 36.0554 73.4602 36.0554C74.4377 36.0554 75.1784 35.8034 75.684 35.2978C76.1896 34.7922 76.5108 34.1283 76.6476 33.3045L79.7843 34.0499C79.5614 34.9581 79.1803 35.7849 78.6409 36.5303C78.1014 37.2757 77.3945 37.8627 76.52 38.2915C75.6456 38.7203 74.6006 38.9339 73.3834 38.9339V38.9308Z" fill="#22262B"/>
    <path d="M81.8421 38.5712V20.575H85.0817V30.5244H85.5443L89.7598 25.8202H93.9753L88.0877 31.9905L94.1812 38.5712H90.0164L85.5428 33.5074H85.0802V38.5712H81.8405H81.8421Z" fill="#22262B"/>
    <path d="M101.177 38.9309C99.514 38.9309 98.1524 38.5712 97.0889 37.8505C96.0254 37.1312 95.383 36.1031 95.1602 34.7661L98.1416 33.9946C98.2615 34.5955 98.4628 35.0657 98.7456 35.4084C99.0284 35.7512 99.3803 35.9955 99.7999 36.1415C100.219 36.2875 100.677 36.3597 101.175 36.3597C101.93 36.3597 102.486 36.2276 102.846 35.9617C103.205 35.6958 103.385 35.367 103.385 34.972C103.385 34.577 103.213 34.2743 102.87 34.0591C102.528 33.8455 101.979 33.6688 101.224 33.532L100.505 33.4029C99.6139 33.2323 98.7994 32.9956 98.0633 32.696C97.3256 32.3963 96.7354 31.9813 96.2897 31.4496C95.8441 30.9178 95.6212 30.2324 95.6212 29.3933C95.6212 28.1254 96.0838 27.1526 97.009 26.4749C97.9342 25.7987 99.1513 25.459 100.659 25.459C102.082 25.459 103.264 25.7756 104.206 26.4103C105.148 27.045 105.766 27.8765 106.056 28.9046L103.049 29.8298C102.912 29.1782 102.632 28.7156 102.213 28.442C101.793 28.1685 101.274 28.0302 100.657 28.0302C100.041 28.0302 99.5693 28.1377 99.2435 28.3513C98.9177 28.5665 98.7548 28.8616 98.7548 29.2381C98.7548 29.65 98.9254 29.9543 99.2697 30.151C99.6124 30.3477 100.075 30.4983 100.657 30.6013L101.377 30.7304C102.336 30.9025 103.205 31.1284 103.986 31.4112C104.765 31.6939 105.383 32.0966 105.837 32.6191C106.29 33.1416 106.517 33.8486 106.517 34.7399C106.517 36.077 106.033 37.1097 105.065 37.8382C104.097 38.5666 102.798 38.9309 101.171 38.9309H101.177Z" fill="#22262B"/>
    <path d="M113.244 34.637H109.76V38.1209H113.244V34.637Z" fill="#22262B"/>
    <path d="M28.0209 31.9813L27.9979 38.9631L17.8471 39L13.4242 32.5899C13.0984 32.1181 12.3607 32.3486 12.3607 32.9219V38.9647H0V0H27.9979V18.7585H20.0095C19.5392 18.7585 19.2626 19.2856 19.5284 19.6729L28.0209 31.9829V31.9813Z" fill="#22262B"/>
  </g>
  <defs>
    <clipPath id="clip0_22_10">
      <rect width="113.244" height="39" fill="white"/>
    </clipPath>
  </defs>
</svg>