<svg width="296" height="306" viewBox="0 0 296 306" fill="none" xmlns="http://www.w3.org/2000/svg">
<g clip-path="url(#clip0_18_2130)">
<path d="M272.486 136.243H302.795V151.447H272.486V136.243Z" fill="#22262B"/>
<path d="M272.486 75.7238H257.381V90.8288H242.276V106.033H257.381V136.243H272.486V75.7238Z" fill="#22262B"/>
<path d="M227.072 106.033H242.276V121.138H227.072V106.033Z" fill="#22262B"/>
<path d="M211.967 121.138H227.072V136.243H211.967V121.138Z" fill="#22262B"/>
<path d="M227.072 60.5194H242.276V45.4144H181.658V60.5194H211.967V75.7238H227.072V60.5194Z" fill="#22262B"/>
<path d="M196.762 75.7238H211.967V90.8288H196.762V75.7238Z" fill="#22262B"/>
<path d="M181.658 0H302.796V15.105H181.658V0Z" fill="#22262B"/>
<path d="M181.658 136.243H211.967V151.447H181.658V136.243Z" fill="#22262B"/>
<path d="M181.658 90.8289H196.763V106.033H181.658V90.8289Z" fill="#22262B"/>
<path d="M166.552 106.033H181.657V136.243H166.552V106.033Z" fill="#22262B"/>
<path d="M166.552 15.1049H181.657V45.4142H166.552V15.1049Z" fill="#22262B"/>
<path d="M136.243 272.586H151.348V302.895H136.243V272.586Z" fill="#22262B"/>
<path d="M136.243 181.757H151.348V211.967H136.243V181.757Z" fill="#22262B"/>
<path d="M121.138 211.967H136.243V227.171H121.138V211.967Z" fill="#22262B"/>
<path d="M105.934 166.553H136.243V181.757H105.934V166.553Z" fill="#22262B"/>
<path d="M15.1052 302.895H136.243V318H15.1052V302.895Z" fill="#22262B"/>
<path d="M105.934 227.171H121.138V242.276H105.934V227.171Z" fill="#22262B"/>
<path d="M90.8286 257.381H75.6243V272.586H136.243V257.381H105.934V242.276H90.8286V257.381Z" fill="#22262B"/>
<path d="M90.8289 181.757H105.934V196.862H90.8289V181.757Z" fill="#22262B"/>
<path d="M75.6243 196.862H90.8286V211.967H75.6243V196.862Z" fill="#22262B"/>
<path d="M45.4146 242.276H60.5196V227.171H75.6245V211.967H60.5196V181.757H45.4146V242.276Z" fill="#22262B"/>
<path d="M15.1052 166.553H45.4146V181.757H15.1052V166.553Z" fill="#22262B"/>
<path d="M0 181.757H15.105V302.895H0V181.757Z" fill="#22262B"/>
</g>
<defs>
<clipPath id="clip0_18_2130">
<rect width="318" height="318" fill="white"/>
</clipPath>
</defs>
</svg>
