<svg width="1343" height="448" viewBox="0 0 1343 448" fill="none" xmlns="http://www.w3.org/2000/svg">
<g clip-path="url(#clip0_15_754)">
<path d="M1342.53 -349.343H0.466003V997.198H1342.53V-349.343Z" stroke="#45494E" stroke-miterlimit="10"/>
<path d="M0.466003 420.105H1342.53" stroke="#45494E" stroke-miterlimit="10"/>
<path d="M0.466003 355.987H1342.53" stroke="#45494E" stroke-miterlimit="10"/>
<path d="M0.466003 291.868H1342.53" stroke="#45494E" stroke-miterlimit="10"/>
<path d="M0.466003 227.75H1342.53" stroke="#45494E" stroke-miterlimit="10"/>
<path d="M0.466003 163.631H1342.53" stroke="#45494E" stroke-miterlimit="10"/>
<path d="M0.466003 99.4998H1342.53" stroke="#45494E" stroke-miterlimit="10"/>
<path d="M0.466003 35.3813H1342.53" stroke="#45494E" stroke-miterlimit="10"/>
<path d="M1278.63 -349.343V997.198" stroke="#45494E" stroke-miterlimit="10"/>
<path d="M1214.72 -349.343V997.198" stroke="#45494E" stroke-miterlimit="10"/>
<path d="M1150.81 -349.343V997.198" stroke="#45494E" stroke-miterlimit="10"/>
<path d="M1086.9 -349.343V997.198" stroke="#45494E" stroke-miterlimit="10"/>
<path d="M1022.99 -349.343V997.198" stroke="#45494E" stroke-miterlimit="10"/>
<path d="M959.085 -349.343V997.198" stroke="#45494E" stroke-miterlimit="10"/>
<path d="M895.178 -349.343V997.198" stroke="#45494E" stroke-miterlimit="10"/>
<path d="M831.271 -349.343V997.198" stroke="#45494E" stroke-miterlimit="10"/>
<path d="M767.365 -349.343V997.198" stroke="#45494E" stroke-miterlimit="10"/>
<path d="M703.458 -349.343V997.198" stroke="#45494E" stroke-miterlimit="10"/>
<path d="M639.542 -349.343V997.198" stroke="#45494E" stroke-miterlimit="10"/>
<path d="M575.635 -349.343V997.198" stroke="#45494E" stroke-miterlimit="10"/>
<path d="M511.729 -349.343V997.198" stroke="#45494E" stroke-miterlimit="10"/>
<path d="M447.822 -349.343V997.198" stroke="#45494E" stroke-miterlimit="10"/>
<path d="M383.915 -349.343V997.198" stroke="#45494E" stroke-miterlimit="10"/>
<path d="M320.009 -349.343V997.198" stroke="#45494E" stroke-miterlimit="10"/>
<path d="M256.102 -349.343V997.198" stroke="#45494E" stroke-miterlimit="10"/>
<path d="M192.186 -349.343V997.198" stroke="#45494E" stroke-miterlimit="10"/>
<path d="M128.279 -349.343V997.198" stroke="#45494E" stroke-miterlimit="10"/>
<path d="M64.3727 -349.343V997.198" stroke="#45494E" stroke-miterlimit="10"/>
</g>
<defs>
<clipPath id="clip0_15_754">
<rect width="1343" height="1027" fill="white" transform="translate(0 -350)"/>
</clipPath>
</defs>
</svg>
