<svg width="1439" height="781" viewBox="0 0 1439 781" fill="none" xmlns="http://www.w3.org/2000/svg">
<g clip-path="url(#clip0_9_3498)">
<path d="M1440.5 0.5H0.5V1024.5H1440.5V0.5Z" stroke="#DDDDDD" stroke-miterlimit="10"/>
<path d="M0.5 780.69H1440.5" stroke="#DDDDDD" stroke-miterlimit="10"/>
<path d="M0.5 731.93H1440.5" stroke="#DDDDDD" stroke-miterlimit="10"/>
<path d="M0.5 683.17H1440.5" stroke="#DDDDDD" stroke-miterlimit="10"/>
<path d="M0.5 634.4H1440.5" stroke="#DDDDDD" stroke-miterlimit="10"/>
<path d="M0.5 585.64H1440.5" stroke="#DDDDDD" stroke-miterlimit="10"/>
<path d="M0.5 536.88H1440.5" stroke="#DDDDDD" stroke-miterlimit="10"/>
<path d="M0.5 488.12H1440.5" stroke="#DDDDDD" stroke-miterlimit="10"/>
<path d="M0.5 439.36H1440.5" stroke="#DDDDDD" stroke-miterlimit="10"/>
<path d="M0.5 390.6H1440.5" stroke="#DDDDDD" stroke-miterlimit="10"/>
<path d="M0.5 341.83H1440.5" stroke="#DDDDDD" stroke-miterlimit="10"/>
<path d="M0.5 293.07H1440.5" stroke="#DDDDDD" stroke-miterlimit="10"/>
<path d="M0.5 244.31H1440.5" stroke="#DDDDDD" stroke-miterlimit="10"/>
<path d="M0.5 195.55H1440.5" stroke="#DDDDDD" stroke-miterlimit="10"/>
<path d="M0.5 146.79H1440.5" stroke="#DDDDDD" stroke-miterlimit="10"/>
<path d="M0.5 98.02H1440.5" stroke="#DDDDDD" stroke-miterlimit="10"/>
<path d="M0.5 49.26H1440.5" stroke="#DDDDDD" stroke-miterlimit="10"/>
<path d="M1371.93 0.5V1024.5" stroke="#DDDDDD" stroke-miterlimit="10"/>
<path d="M1303.36 0.5V1024.5" stroke="#DDDDDD" stroke-miterlimit="10"/>
<path d="M1234.79 0.5V1024.5" stroke="#DDDDDD" stroke-miterlimit="10"/>
<path d="M1166.21 0.5V1024.5" stroke="#DDDDDD" stroke-miterlimit="10"/>
<path d="M1097.64 0.5V1024.5" stroke="#DDDDDD" stroke-miterlimit="10"/>
<path d="M1029.07 0.5V1024.5" stroke="#DDDDDD" stroke-miterlimit="10"/>
<path d="M960.5 0.5V1024.5" stroke="#DDDDDD" stroke-miterlimit="10"/>
<path d="M891.93 0.5V1024.5" stroke="#DDDDDD" stroke-miterlimit="10"/>
<path d="M823.36 0.5V1024.5" stroke="#DDDDDD" stroke-miterlimit="10"/>
<path d="M754.79 0.5V1024.5" stroke="#DDDDDD" stroke-miterlimit="10"/>
<path d="M686.21 0.5V1024.5" stroke="#DDDDDD" stroke-miterlimit="10"/>
<path d="M617.64 0.5V1024.5" stroke="#DDDDDD" stroke-miterlimit="10"/>
<path d="M549.07 0.5V1024.5" stroke="#DDDDDD" stroke-miterlimit="10"/>
<path d="M480.5 0.5V1024.5" stroke="#DDDDDD" stroke-miterlimit="10"/>
<path d="M411.93 0.5V1024.5" stroke="#DDDDDD" stroke-miterlimit="10"/>
<path d="M343.36 0.5V1024.5" stroke="#DDDDDD" stroke-miterlimit="10"/>
<path d="M274.79 0.5V1024.5" stroke="#DDDDDD" stroke-miterlimit="10"/>
<path d="M206.21 0.5V1024.5" stroke="#DDDDDD" stroke-miterlimit="10"/>
<path d="M137.64 0.5V1024.5" stroke="#DDDDDD" stroke-miterlimit="10"/>
<path d="M69.07 0.5V1024.5" stroke="#DDDDDD" stroke-miterlimit="10"/>
</g>
<defs>
<clipPath id="clip0_9_3498">
<rect width="1441" height="781" fill="white"/>
</clipPath>
</defs>
</svg>
