<svg width="685" height="1024" viewBox="0 0 685 1024" fill="none" xmlns="http://www.w3.org/2000/svg">
<path d="M1439.5 -0.614197H-0.5V1257.25H1439.5V-0.614197Z" stroke="#EAEAEA" stroke-miterlimit="10"/>
<path d="M-0.5 1017.65H1439.5" stroke="#EAEAEA" stroke-miterlimit="10"/>
<path d="M-0.5 957.757H1439.5" stroke="#EAEAEA" stroke-miterlimit="10"/>
<path d="M-0.5 897.861H1439.5" stroke="#EAEAEA" stroke-miterlimit="10"/>
<path d="M-0.5 837.965H1439.5" stroke="#EAEAEA" stroke-miterlimit="10"/>
<path d="M-0.5 778.057H1439.5" stroke="#EAEAEA" stroke-miterlimit="10"/>
<path d="M-0.5 718.161H1439.5" stroke="#EAEAEA" stroke-miterlimit="10"/>
<path d="M-0.5 658.265H1439.5" stroke="#EAEAEA" stroke-miterlimit="10"/>
<path d="M-0.5 598.369H1439.5" stroke="#EAEAEA" stroke-miterlimit="10"/>
<path d="M-0.5 538.473H1439.5" stroke="#EAEAEA" stroke-miterlimit="10"/>
<path d="M-0.5 478.577H1439.5" stroke="#EAEAEA" stroke-miterlimit="10"/>
<path d="M-0.5 418.669H1439.5" stroke="#EAEAEA" stroke-miterlimit="10"/>
<path d="M-0.5 358.773H1439.5" stroke="#EAEAEA" stroke-miterlimit="10"/>
<path d="M-0.5 298.877H1439.5" stroke="#EAEAEA" stroke-miterlimit="10"/>
<path d="M-0.5 238.982H1439.5" stroke="#EAEAEA" stroke-miterlimit="10"/>
<path d="M-0.5 179.086H1439.5" stroke="#EAEAEA" stroke-miterlimit="10"/>
<path d="M-0.5 119.178H1439.5" stroke="#EAEAEA" stroke-miterlimit="10"/>
<path d="M-0.5 59.2817H1439.5" stroke="#EAEAEA" stroke-miterlimit="10"/>
<path d="M685.21 -0.614197V1257.25" stroke="#EAEAEA" stroke-miterlimit="10"/>
<path d="M616.64 -0.614197V1257.25" stroke="#EAEAEA" stroke-miterlimit="10"/>
<path d="M548.07 -0.614197V1257.25" stroke="#EAEAEA" stroke-miterlimit="10"/>
<path d="M479.5 -0.614197V1257.25" stroke="#EAEAEA" stroke-miterlimit="10"/>
<path d="M410.93 -0.614197V1257.25" stroke="#EAEAEA" stroke-miterlimit="10"/>
<path d="M342.36 -0.614197V1257.25" stroke="#EAEAEA" stroke-miterlimit="10"/>
<path d="M273.79 -0.614197V1257.25" stroke="#EAEAEA" stroke-miterlimit="10"/>
<path d="M205.21 -0.614197V1257.25" stroke="#EAEAEA" stroke-miterlimit="10"/>
<path d="M136.64 -0.614197V1257.25" stroke="#EAEAEA" stroke-miterlimit="10"/>
<path d="M68.0699 -0.614197V1257.25" stroke="#EAEAEA" stroke-miterlimit="10"/>
</svg>
