<svg width="320" height="340" viewBox="0 0 320 340" fill="none" xmlns="http://www.w3.org/2000/svg">
<g clip-path="url(#clip0_18_2156)">
<path d="M275.292 153.743H242.886V169.999H226.736V202.405H242.886V218.555H275.292V202.405H291.442V169.999H275.292V153.743Z" fill="black"/>
<path d="M307.592 153.743H323.849V169.999H307.592V153.743Z" fill="black"/>
<path d="M291.444 137.593H307.594V153.743H291.444V137.593Z" fill="black"/>
<path d="M226.736 121.442H291.442V137.592H226.736V121.442Z" fill="black"/>
<path d="M210.48 137.593H226.736V153.743H210.48V137.593Z" fill="black"/>
<path d="M194.332 153.743H210.482V169.999H194.332V153.743Z" fill="black"/>
<path d="M307.592 234.707H323.849V267.113H307.592V234.707Z" fill="black"/>
<path d="M291.444 267.112H307.594V299.519H291.444V267.112Z" fill="black"/>
<path d="M275.295 299.518H291.445V315.668H275.295V299.518Z" fill="black"/>
<path d="M242.888 315.668H275.294V331.925H242.888V315.668Z" fill="black"/>
<path d="M226.736 299.518H242.886V315.668H226.736V299.518Z" fill="black"/>
<path d="M210.48 267.112H226.736V299.519H210.48V267.112Z" fill="black"/>
<path d="M194.332 234.707H210.482V267.113H194.332V234.707Z" fill="black"/>
<path d="M178.076 315.668H210.482V331.925H178.076V315.668Z" fill="black"/>
<path d="M178.076 170H194.332V234.706H178.076V170Z" fill="black"/>
<path d="M145.776 56.6305H161.926V121.443H145.776V56.6305Z" fill="black"/>
<path d="M129.52 315.668H161.926V331.925H129.52V315.668Z" fill="black"/>
<path d="M129.52 121.442H145.776V153.742H129.52V121.442Z" fill="black"/>
<path d="M129.52 40.4805H145.776V56.6305H129.52V40.4805Z" fill="black"/>
<path d="M113.368 153.743H129.518V186.149H113.368V153.743Z" fill="black"/>
<path d="M113.368 24.2247H129.518V40.481H113.368V24.2247Z" fill="black"/>
<path d="M97.1121 186.149H113.368V202.405H97.1121V186.149Z" fill="black"/>
<path d="M80.9636 315.668H113.37V331.925H80.9636V315.668Z" fill="black"/>
<path d="M97.1122 40.4805H64.8122V56.6305H48.5559V89.0367H64.8122V105.187H97.1122V89.0367H113.368V56.6305H97.1122V40.4805Z" fill="black"/>
<path d="M64.8115 283.368H80.9615V315.668H64.8115V283.368Z" fill="black"/>
<path d="M64.8115 234.707H80.9615V267.113H64.8115V234.707Z" fill="black"/>
<path d="M64.8115 202.406H97.1115V218.556H64.8115V202.406Z" fill="black"/>
<path d="M48.5559 8.07422H113.368V24.2242H48.5559V8.07422Z" fill="black"/>
<path d="M48.5559 186.149H64.8122V202.405H48.5559V186.149Z" fill="black"/>
<path d="M32.4075 153.743H48.5575V186.149H32.4075V153.743Z" fill="black"/>
<path d="M32.4075 24.2247H48.5575V40.481H32.4075V24.2247Z" fill="black"/>
<path d="M16.2556 121.442H32.4056V153.742H16.2556V121.442Z" fill="black"/>
<path d="M16.2556 40.4805H32.4056V56.6305H16.2556V40.4805Z" fill="black"/>
<path d="M0 56.6305H16.2563V121.443H0V56.6305Z" fill="black"/>
</g>
<defs>
<clipPath id="clip0_18_2156">
<rect width="340" height="340" fill="white"/>
</clipPath>
</defs>
</svg>
